<?xml version="1.0" encoding="utf-8"?>
<!-- Generator: Adobe Illustrator 25.2.0, SVG Export Plug-In . SVG Version: 6.00 Build 0)  -->
<svg version="1.1" id="Layer_1" xmlns="http://www.w3.org/2000/svg" xmlns:xlink="http://www.w3.org/1999/xlink" x="0px" y="0px"
	 viewBox="0 0 512 512" style="enable-background:new 0 0 512 512;" xml:space="preserve">
<style type="text/css">
	.st0{fill:#4949CE;}
	.st1{fill:#E02D7E;}
</style>
<g id="Database-cloud-laptop-computer-smartphone">
	<path class="st0" d="M328,168H184c-4.4,0-8,3.6-8,8v192c0,4.4,3.6,8,8,8h144c4.4,0,8-3.6,8-8V176C336,171.6,332.4,168,328,168z
		 M320,360H192v-48h128V360z M320,296H192v-48h128V296z M320,232H192v-48h128V232z"/>
	<path class="st0" d="M472,16H360c-13.2,0-24,10.8-24,24v64c0,13.2,10.8,24,24,24h32v16h-16v16h80v-16h-16v-16h32
		c13.2,0,24-10.8,24-24V40C496,26.8,485.2,16,472,16z M424,144h-16v-16h16V144z M480,104c0,4.4-3.6,8-8,8H360c-4.4,0-8-3.6-8-8v-8
		h128V104z M480,80H352V40c0-4.4,3.6-8,8-8h112c4.4,0,8,3.6,8,8V80z"/>
	<path class="st0" d="M488,448v-56c0-13.2-10.8-24-24-24h-96c-13.2,0-24,10.8-24,24v56c-4.4,0-8,3.6-8,8v16c0,13.2,10.8,24,24,24
		h112c13.2,0,24-10.8,24-24v-16C496,451.6,492.4,448,488,448z M360,392c0-4.4,3.6-8,8-8h96c4.4,0,8,3.6,8,8v56H360V392z M480,472
		c0,4.4-3.6,8-8,8H360c-4.4,0-8-3.6-8-8v-8h128V472z"/>
	<path class="st0" d="M136,384h-8v-8c0-13.2-10.8-24-24-24H40c-13.2,0-24,10.8-24,24v96c0,13.2,10.8,24,24,24h96
		c13.2,0,24-10.8,24-24v-64C160,394.8,149.2,384,136,384z M81.4,480H40c-4.4,0-8-3.6-8-8v-96c0-4.4,3.6-8,8-8h64c4.4,0,8,3.6,8,8v8
		h-8c-13.2,0-24,10.8-24,24v64C80,474.7,80.5,477.4,81.4,480z M144,472c0,4.4-3.6,8-8,8h-32c-4.4,0-8-3.6-8-8v-64c0-4.4,3.6-8,8-8
		h32c4.4,0,8,3.6,8,8V472z"/>
	<path class="st0" d="M191.4,64.6c-4-21.7-24.8-36-46.5-32c-1.3,0.2-2.6,0.6-3.9,0.9c-9-11.2-22.6-17.6-37-17.6
		c-20.4,0.1-38.6,13-45.4,32.3c-26.3,3.1-45.2,26.9-42.1,53.2c2.8,24.1,23.2,42.4,47.5,42.5h120c22.1,0.1,40.1-17.7,40.2-39.8
		C224.4,84.8,210.5,68.1,191.4,64.6z M184,128H64c-17.7-0.1-31.9-14.6-31.8-32.3c0.1-17.2,13.9-31.2,31.1-31.8
		c0.4,0.1,0.8,0.2,1.3,0.2c3.9,0.1,7.3-2.6,8.1-6.4c3.4-17.3,20.3-28.5,37.5-25.1c8.8,1.8,16.5,7.1,21.1,14.8
		c2.1,3.6,6.6,4.9,10.3,3c11.8-5.8,26.1-1,31.9,10.7c1.7,3.3,2.5,7,2.5,10.8c0,4.4,3.6,8,8,8c13.3,0,24,10.7,24,24
		S197.3,128,184,128z"/>
	<path class="st0" d="M208,200h16v16h-16V200z"/>
	<path class="st0" d="M248,200h16v16h-16V200z"/>
	<path class="st0" d="M288,200h16v16h-16V200z"/>
	<path class="st0" d="M208,264h16v16h-16V264z"/>
	<path class="st0" d="M248,264h16v16h-16V264z"/>
	<path class="st0" d="M288,264h16v16h-16V264z"/>
	<path class="st0" d="M208,328h16v16h-16V328z"/>
	<path class="st0" d="M248,328h16v16h-16V328z"/>
	<path class="st0" d="M288,328h16v16h-16V328z"/>
	<path class="st1" d="M424,232v-56h-16v48h-56v16h64C420.4,240,424,236.4,424,232z"/>
	<path class="st1" d="M352,288h56v64h16v-72c0-4.4-3.6-8-8-8h-64V288z"/>
	<path class="st1" d="M104,160H88v72c0,4.4,3.6,8,8,8h64v-16h-56V160z"/>
	<path class="st1" d="M88,280v56h16v-48h56v-16H96C91.6,272,88,275.6,88,280z"/>
</g>
</svg>
