<?xml version="1.0" encoding="utf-8"?>
<!-- Generator: Adobe Illustrator 25.2.0, SVG Export Plug-In . SVG Version: 6.00 Build 0)  -->
<svg version="1.1" id="Layer_1" xmlns="http://www.w3.org/2000/svg" xmlns:xlink="http://www.w3.org/1999/xlink" x="0px" y="0px"
	 viewBox="0 0 469 469" style="enable-background:new 0 0 469 469;" xml:space="preserve">
<style type="text/css">
	.st0{fill:#D1D0FC;}
	.st1{fill:#4949CE;}
	.st2{fill:#E02C7E;}
</style>
<path class="st0" d="M296,256.1v42.4c0,8.5-13.3,15.9-32.7,19.7c-9.5,1.8-19.1,2.6-28.8,2.6c-34,0-61.5-10-61.5-22.2v-42.4
	c0,12.3,27.5,22.2,61.5,22.2S296,268.4,296,256.1z"/>
<path class="st0" d="M296,171.8V214c0,12.3-27.5,22.2-61.5,22.2s-61.5-9.9-61.5-22.2v-42.2c0,12.3,27.5,22.2,61.5,22.2
	S296,184.1,296,171.8z"/>
<g>
	<path class="st1" d="M19.3,104.6c-1-11.3-0.3-22.6,2-33.7c3.1-13.8,9.1-25.3,17.9-34c12.3-12.3,29.6-19.1,51.4-20.1
		c10.5-0.4,21.1,0.3,31.5,2.1l2.8-15.7c-11.5-2-23.2-2.8-34.9-2.4C63.9,2,43,10.3,27.8,25.5c-11,11-18.4,25.1-22.2,41.9l0,0.1
		C3,80.2,2.2,93.1,3.4,106L19.3,104.6z"/>
	<path class="st1" d="M8,135.4c2,8.6,4.4,17,7.3,25.3l15.1-5.2c-2.7-7.8-5-15.7-6.9-23.8L8,135.4z"/>
	<path class="st1" d="M54.3,209c-4.8-8.8-9.2-17.6-13.1-26.2l-14.6,6.6c4.1,9,8.7,18.2,13.7,27.3L54.3,209z"/>
	<path class="st1" d="M116.7,297c-0.7-0.8-1.4-1.6-2.1-2.4l-12.1,10.5c0.7,0.8,1.4,1.6,2.1,2.4c4,4.5,8.2,9.2,12.6,13.8
		c1.9,2,3.8,4.1,5.8,6.1l11.5-11.1c-1.9-2-3.8-4-5.6-6C124.7,305.9,120.6,301.3,116.7,297z"/>
	<path class="st1" d="M83.3,281.6l12.6-9.8c-1.2-1.5-2.3-3-3.5-4.5c-4.9-6.4-9.6-12.9-14-19.3L65.3,257c4.6,6.6,9.4,13.3,14.4,19.9
		C80.9,278.5,82.1,280,83.3,281.6z"/>
	<path class="st1" d="M136.7,341.1c15.1,14.7,31,28.6,47.6,41.6c22.5,17.7,46.6,33.4,71.8,46.9c14.8,7.9,30.1,14.7,45.8,20.4
		l-14.6,4.2l4.4,15.4l40.6-11.6l0.2-0.1c2-0.6,3.8-1.9,4.8-3.8c1-1.9,1.3-4.1,0.7-6.1l-10.7-37.2l-15.4,4.4l6.8,23.6
		c-19.1-6-37.6-13.8-55.2-23.3c-24.4-13.1-47.7-28.2-69.5-45.4c-16.2-12.6-31.6-26.2-46.3-40.5L136.7,341.1z"/>
	<path class="st1" d="M464,343.7c-3.3-20.4-10-42.3-20-65.2l-14.6,6.4c9.5,21.6,15.8,42.2,18.9,61.3c5.7,35.7-0.6,63.9-18.2,81.5
		c-8.7,8.7-20,14.7-33.7,17.8c-11,2.5-23.5,3.1-37.2,1.8c-3.4-0.3-6.8-0.8-10.3-1.3l-2.5,15.8c3.8,0.6,7.6,1.1,11.3,1.4
		c5.2,0.5,10.3,0.7,15.2,0.7c9.1,0.1,18.1-0.9,27-2.8c16.6-3.8,30.6-11.2,41.5-22.1C462.7,417.7,470.5,384.8,464,343.7z"/>
	<path class="st1" d="M425.3,241.6l-13.9,7.9c3.9,6.8,7.5,13.6,10.8,20.2l14.3-7.1C433,255.7,429.3,248.6,425.3,241.6z"/>
	<path class="st1" d="M388.2,186l-12.7,9.7c5.9,7.8,11.8,15.8,17.3,23.9l13.2-9C400.3,202.3,394.3,194.1,388.2,186z"/>
	<path class="st1" d="M348.7,139.9l-11.6,11c6.8,7.1,13.4,14.5,19.8,21.9l12.1-10.4C362.5,154.8,355.6,147.2,348.7,139.9z"/>
	<path class="st1" d="M142.6,19.1l8.1,37.8l15.6-3.3l-5.2-24.1c14.7,5.2,28.9,11.5,42.7,18.7c24.1,12.7,47.1,27.6,68.6,44.3
		c10.2,7.8,20.4,16.3,30.4,25.3c5.5,4.9,11,10.1,16.6,15.5c2.3,2.2,4.7,4.6,7.2,7.1l11.3-11.3c-2.5-2.5-5-5-7.4-7.3
		c-5.7-5.5-11.5-10.9-17.1-15.9c-10.3-9.2-20.8-17.9-31.2-26c-10.2-7.9-20.7-15.4-31.5-22.5c6.1-3.5,12.3-6.7,18.3-9.7L262,33.3
		c-7.2,3.6-14.5,7.5-21.8,11.6l5.1,8.9c-11.1-7.1-22.4-13.7-34-19.8c-10.3-5.5-20.9-10.4-31.8-14.7l14.1-3l-3.3-15.6l-41.6,8.9
		c-4.1,0.9-6.8,4.8-6.2,9C142.5,18.7,142.6,18.9,142.6,19.1z"/>
	<path class="st1" d="M2.5,345c-2,11.5-2.8,23.2-2.4,34.9c1.2,25.9,9.5,46.8,24.7,62c11,11,25.1,18.5,42,22.2
		c8.8,1.8,17.8,2.8,26.8,2.8c3.9,0,7.7-0.2,11.6-0.5l-1.4-15.9c-11.3,1-22.6,0.3-33.7-2c-13.8-3-25.3-9-34.1-17.8
		c-12.3-12.3-19.1-29.6-20.1-51.4c-0.4-10.5,0.3-21.1,2.1-31.5L2.5,345z"/>
	<path class="st1" d="M134.8,461.7c8.6-2,17-4.4,25.3-7.3l-5.2-15.1c-7.8,2.7-15.7,5-23.8,6.9L134.8,461.7z"/>
	<path class="st1" d="M188.7,443.1c9-4.1,18.2-8.7,27.3-13.7l-7.7-14c-8.8,4.8-17.6,9.2-26.2,13.1L188.7,443.1z"/>
	<path class="st1" d="M247.4,391.3l9.1,13.2c6.7-4.6,13.4-9.5,19.9-14.4c1.5-1.2,3.1-2.4,4.6-3.6l-9.8-12.6c-1.5,1.2-3,2.3-4.5,3.5
		C260.3,382.1,253.9,386.8,247.4,391.3z"/>
	<path class="st1" d="M294,355.1l10.5,12.1c0.8-0.7,1.6-1.4,2.5-2.1c4.5-3.9,9.1-8.2,13.8-12.5c2-1.9,4.1-3.8,6.1-5.8l-11.1-11.5
		c-2,1.9-4,3.8-5.9,5.6c-4.6,4.3-9.1,8.4-13.5,12.2C295.6,353.7,294.8,354.4,294,355.1z"/>
	<path class="st1" d="M345.7,21.5c35.7-5.7,63.9,0.6,81.5,18.2c8.7,8.7,14.7,20.1,17.8,33.7c2.5,11,3.1,23.5,1.8,37.2
		c-0.3,3.4-0.8,6.8-1.3,10.3l15.8,2.5c0.6-3.8,1.1-7.6,1.4-11.3c1.5-15.3,0.8-29.5-2.1-42.2c-3.7-16.6-11.2-30.6-22.1-41.5
		C417.1,7,384.1-0.8,343.1,5.8c-20.4,3.3-42.3,10-65.2,20l6.4,14.6C306,30.9,326.6,24.6,345.7,21.5z"/>
	<path class="st1" d="M172.2,112.8l-10.4-12.1c-7.7,6.6-15.3,13.4-22.5,20.4l11,11.6C157.4,125.9,164.7,119.2,172.2,112.8z"/>
	<path class="st1" d="M219.1,77l-9-13.2c-8.3,5.7-16.6,11.7-24.6,17.8l9.7,12.7C202.9,88.3,211,82.5,219.1,77z"/>
	<path class="st1" d="M457.4,137.5l-0.1-0.2c-0.6-2-1.9-3.8-3.8-4.8c-1.9-1-4-1.3-6.1-0.7l-37.2,10.6l4.4,15.4l23.6-6.8
		c-6,19.1-13.8,37.5-23.3,55.2c-13.1,24.4-28.2,47.7-45.4,69.5c-12.7,16.2-26.2,31.6-40.5,46.3l11.4,11.2
		c14.7-15.1,28.6-31,41.6-47.6c17.7-22.5,33.4-46.6,46.9-71.8c7.9-14.8,14.7-30.1,20.4-45.8l4.2,14.6l15.4-4.4L457.4,137.5z"/>
	<path class="st1" d="M16.8,327.3c0.4,0,0.7,0,1.1-0.1c0.2,0,0.4-0.1,0.6-0.1l37.8-8.1l-3.3-15.6l-24.1,5.2
		c5.2-14.7,11.5-28.9,18.7-42.7c12.7-24.1,27.6-47.1,44.3-68.6c7.8-10.2,16.3-20.4,25.3-30.4c5-5.6,10.2-11.2,15.5-16.6
		c2.1-2.2,4.4-4.5,7.1-7.2l-11.3-11.3c-2.8,2.8-5.1,5.1-7.3,7.4c-5.4,5.6-10.7,11.3-15.9,17.1c-9.2,10.3-17.9,20.8-26,31.3
		c-17.3,22.3-32.6,46-45.8,70.9c-5.5,10.3-10.4,20.9-14.7,31.7l-3-14.1L0,279.5L8.9,321C9.7,324.7,13,327.3,16.8,327.3z"/>
	<path class="st2" d="M165.6,171.8v126.7c0,6.8,3.8,16.3,23,23.2c12.5,4.5,28.7,7,46,7h0.6c10,0,20-0.9,29.8-2.7
		c24.9-4.8,39.3-14.8,39.3-27.5V171.8c0-6.8-4.2-16.3-23.5-23.2c-12.5-4.5-29-7-46.3-7s-33.5,2.5-46,7
		C169.4,155.5,165.6,165.1,165.6,171.8z M288.4,298.6c0,1.5-6.5,8-26.4,11.8c-9,1.7-18.2,2.5-27.4,2.4c-15.5,0-29.8-2.1-40.6-6
		c-10.5-3.8-12.5-7.6-12.5-8.2v-22.3c2.3,1.2,4.6,2.2,7.1,3.1c12.5,4.5,28.7,7,46.1,7c17.3,0,33.9-2.5,46.3-7c2.7-1,4.4-2,7.4-3.1
		V298.6z M288.4,255.2v0.9c0,0.6-2.4,4.4-12.9,8.2c-10.8,3.9-25.3,6-40.8,6s-29.8-2.1-40.6-6c-10.5-3.8-12.5-7.6-12.5-8.2v-22
		c2.3,1.2,4.6,2.2,7.1,3.1c12.5,4.5,28.7,7,46.1,7c17.3,0,33.9-2.5,46.3-7c2.7-1,4.4-2,7.4-3.1V255.2z M288.4,214
		c0,0.6-2.4,4.4-12.9,8.2c-10.8,3.9-25.3,6-40.8,6s-29.8-2.1-40.6-6c-10.5-3.8-12.5-7.6-12.5-8.2v-22c2.3,1.2,4.6,2.2,7.1,3.1
		c12.5,4.5,28.7,7,46.1,7c17.3,0,33.8-2.5,46.3-7c2.7-1,4.4-2,7.4-3.1V214z M193.8,163.6c10.8-3.9,25.2-6,40.8-6
		c15.5,0,30,2.1,40.7,6c10.5,3.8,12.7,7.6,12.7,8.2c0,0.6-2.2,4.4-12.7,8.2c-10.8,3.9-25.2,6-40.7,6s-30-2.1-40.8-6
		c-10.5-3.8-12.7-7.6-12.7-8.2C181.1,171.2,183.3,167.4,193.8,163.6z"/>
</g>
</svg>
