<?xml version="1.0" encoding="utf-8"?>
<!-- Generator: Adobe Illustrator 25.2.0, SVG Export Plug-In . SVG Version: 6.00 Build 0)  -->
<svg version="1.1" id="Capa_1" xmlns="http://www.w3.org/2000/svg" xmlns:xlink="http://www.w3.org/1999/xlink" x="0px" y="0px"
	 viewBox="0 0 512 512" style="enable-background:new 0 0 512 512;" xml:space="preserve">
<style type="text/css">
	.st0{fill:#4949CE;}
	.st1{fill:#E02D7E;}
</style>
<g>
	<g>
		<g>
			<path class="st0" d="M119.5,162.1H68.3c-4.7,0-8.5,3.8-8.5,8.5s3.8,8.5,8.5,8.5h51.2c4.7,0,8.5-3.8,8.5-8.5
				S124.2,162.1,119.5,162.1z"/>
			<path class="st0" d="M119.5,196.3H68.3c-4.7,0-8.5,3.8-8.5,8.5s3.8,8.5,8.5,8.5h51.2c4.7,0,8.5-3.8,8.5-8.5
				S124.2,196.3,119.5,196.3z"/>
			<path class="st1" d="M93.9,247.5c-18.9,0-34.1,15.3-34.1,34.1s15.3,34.1,34.1,34.1c18.8,0,34.1-15.3,34.1-34.1
				C128,262.7,112.7,247.5,93.9,247.5z M93.9,298.7c-9.4,0-17.1-7.6-17.1-17.1c0-9.4,7.6-17.1,17.1-17.1s17.1,7.6,17.1,17.1
				C110.9,291,103.3,298.7,93.9,298.7z"/>
			<path class="st0" d="M102.4,85.3H42.7c-4.7,0-8.5,3.8-8.5,8.5c0,4.7,3.8,8.5,8.5,8.5h59.7c4.7,0,8.5-3.8,8.5-8.5
				S107.1,85.3,102.4,85.3z"/>
			<path class="st0" d="M486.4,366.9c14.1,0,25.6-11.5,25.6-25.6V68.3c0-14.1-11.5-25.6-25.6-25.6H366.9V25.6
				c0-14.1-11.5-25.6-25.6-25.6H170.7c-14.1,0-25.6,11.5-25.6,25.6v17.1H25.6C11.5,42.7,0,54.1,0,68.3v273.1
				c0,14.1,11.5,25.6,25.6,25.6h59.7v93.9H68.3c-9.4,0-17.1,7.6-17.1,17.1H8.5c-4.7,0-8.5,3.8-8.5,8.5s3.8,8.5,8.5,8.5h42.7
				c0,9.4,7.6,17.1,17.1,17.1h51.2c9.4,0,17.1-7.6,17.1-17.1h76.8c0,9.4,7.6,17.1,17.1,17.1h51.2c9.4,0,17.1-7.6,17.1-17.1h76.8
				c0,9.4,7.6,17.1,17.1,17.1h51.2c9.4,0,17.1-7.6,17.1-17.1h42.7c4.7,0,8.5-3.8,8.5-8.5s-3.8-8.5-8.5-8.5h-42.7
				c0-9.4-7.6-17.1-17.1-17.1h-17.1v-93.9H486.4z M366.9,102.4h59.7c4.7,0,8.5-3.8,8.5-8.5c0-4.7-3.8-8.5-8.5-8.5h-59.7V59.7h119.5
				c4.7,0,8.5,3.8,8.5,8.5V128h-128L366.9,102.4L366.9,102.4z M162.1,25.6c0-4.7,3.8-8.5,8.5-8.5h170.7c4.7,0,8.5,3.8,8.5,8.5v76.8
				H162.1V25.6z M162.1,119.5h187.7V384c0,4.7-3.8,8.5-8.5,8.5H170.7c-4.7,0-8.5-3.8-8.5-8.5L162.1,119.5L162.1,119.5z M17.1,68.3
				c0-4.7,3.8-8.5,8.5-8.5h119.5v25.6h-8.5c-4.7,0-8.5,3.8-8.5,8.5c0,4.7,3.8,8.5,8.5,8.5h8.5V128h-128
				C17.1,128,17.1,68.3,17.1,68.3z M25.6,349.9c-4.7,0-8.5-3.8-8.5-8.5V145.1h128v204.8H25.6z M68.3,494.9v-17.1h51.2l0,8.5l0,0l0,0
				l0,8.5L68.3,494.9L68.3,494.9z M213.3,477.9h-76.8c0-9.4-7.6-17.1-17.1-17.1h-17.1v-93.9h42.7V384c0,14.1,11.5,25.6,25.6,25.6
				h76.8v51.2h-17.1C221,460.8,213.3,468.4,213.3,477.9z M230.4,494.9v-17.1h51.2l0,8.5l0,0l0,0l0,8.5H230.4z M375.5,477.9h-76.8
				c0-9.4-7.6-17.1-17.1-17.1h-17.1v-51.2h76.8c14.1,0,25.6-11.5,25.6-25.6v-17.1h42.7v93.9h-17.1
				C383.1,460.8,375.5,468.4,375.5,477.9z M443.7,477.9l0,8.5l0,0l0,0l0,8.5h-51.2v-17.1L443.7,477.9L443.7,477.9z M366.9,349.9
				V145.1h128v196.3c0,4.7-3.8,8.5-8.5,8.5L366.9,349.9L366.9,349.9z"/>
			<path class="st0" d="M443.7,162.1h-51.2c-4.7,0-8.5,3.8-8.5,8.5s3.8,8.5,8.5,8.5h51.2c4.7,0,8.5-3.8,8.5-8.5
				S448.4,162.1,443.7,162.1z"/>
			<path class="st0" d="M443.7,196.3h-51.2c-4.7,0-8.5,3.8-8.5,8.5s3.8,8.5,8.5,8.5h51.2c4.7,0,8.5-3.8,8.5-8.5
				S448.4,196.3,443.7,196.3z"/>
			<path class="st1" d="M418.1,247.5c-18.9,0-34.1,15.3-34.1,34.1s15.3,34.1,34.1,34.1s34.1-15.3,34.1-34.1
				C452.2,262.8,437,247.5,418.1,247.5z M418.1,298.7c-9.4,0-17.1-7.6-17.1-17.1s7.6-17.1,17.1-17.1s17.1,7.6,17.1,17.1
				C435.2,291,427.6,298.7,418.1,298.7z"/>
			<path class="st1" d="M256,290.1c-18.9,0-34.1,15.3-34.1,34.1c0,18.9,15.3,34.1,34.1,34.1s34.1-15.3,34.1-34.1
				C290.1,305.4,274.8,290.2,256,290.1z M256,341.3c-9.4,0-17.1-7.6-17.1-17.1s7.6-17.1,17.1-17.1s17.1,7.6,17.1,17.1
				C273.1,333.7,265.4,341.3,256,341.3z"/>
			<path class="st0" d="M469.3,85.3h-8.5c-4.7,0-8.5,3.8-8.5,8.5c0,4.7,3.8,8.5,8.5,8.5h8.5c4.7,0,8.5-3.8,8.5-8.5
				C477.9,89.2,474,85.3,469.3,85.3z"/>
			<path class="st0" d="M281.6,51.2h-93.9c-4.7,0-8.5,3.8-8.5,8.5s3.8,8.5,8.5,8.5h93.9c4.7,0,8.5-3.8,8.5-8.5
				S286.3,51.2,281.6,51.2z"/>
			<path class="st0" d="M324.3,51.2h-8.5c-4.7,0-8.5,3.8-8.5,8.5s3.8,8.5,8.5,8.5h8.5c4.7,0,8.5-3.8,8.5-8.5S329,51.2,324.3,51.2z"
				/>
			<path class="st0" d="M213.3,153.6h85.3c4.7,0,8.5-3.8,8.5-8.5s-3.8-8.5-8.5-8.5h-85.3c-4.7,0-8.5,3.8-8.5,8.5
				S208.6,153.6,213.3,153.6z"/>
			<path class="st0" d="M213.3,187.7h85.3c4.7,0,8.5-3.8,8.5-8.5s-3.8-8.5-8.5-8.5h-85.3c-4.7,0-8.5,3.8-8.5,8.5
				S208.6,187.7,213.3,187.7z"/>
			<path class="st0" d="M213.3,221.9h85.3c4.7,0,8.5-3.8,8.5-8.5c0-4.7-3.8-8.5-8.5-8.5h-85.3c-4.7,0-8.5,3.8-8.5,8.5
				C204.8,218,208.6,221.9,213.3,221.9z"/>
		</g>
	</g>
</g>
</svg>
