<?xml version="1.0" encoding="utf-8"?>
<!-- Generator: Adobe Illustrator 25.2.0, SVG Export Plug-In . SVG Version: 6.00 Build 0)  -->
<svg version="1.1" id="Capa_1" xmlns="http://www.w3.org/2000/svg" xmlns:xlink="http://www.w3.org/1999/xlink" x="0px" y="0px"
	 viewBox="0 0 512 433.2" style="enable-background:new 0 0 512 433.2;" xml:space="preserve">
<style type="text/css">
	.st0{fill:#4949CE;}
	.st1{fill:#E02D7E;}
</style>
<g>
	<path class="st0" d="M492.6,15.9H116.1c-4.1,0-7.5,3.4-7.5,7.5s3.4,7.5,7.5,7.5h376.5c2.4,0,4.4,2,4.4,4.4v248.9h-90.7v-19.8
		c0-4.1-3.4-7.5-7.5-7.5h-20.3c-3.2-15.4-9.3-30.3-18-43.5l14.4-14.4c2.9-2.9,2.9-7.7,0-10.6l-25.1-25.1c-2.9-2.9-7.7-2.9-10.6,0
		l-14.5,14.3c-13.2-8.7-28-14.8-43.5-18v-20.3c0-4.1-3.4-7.5-7.5-7.5h-35.5c-4.1,0-7.5,3.4-7.5,7.5v20.3c-15.4,3.2-30.3,9.3-43.5,18
		l-14.4-14.4c-1.4-1.4-3.3-2.2-5.3-2.2s-3.9,0.8-5.3,2.2l-25.1,25.1c-2.9,2.9-2.9,7.7,0,10.6l14.4,14.4c-8.7,13.2-14.8,28-18,43.5
		h-20.3c-4.1,0-7.5,3.4-7.5,7.5v19.8H15V35.3c0-2.4,2-4.4,4.4-4.4h66.8c4.1,0,7.5-3.4,7.5-7.5s-3.4-7.5-7.5-7.5H19.4
		C8.7,15.9,0,24.6,0,35.3V351c0,10.7,8.7,19.4,19.4,19.4h170.8v32h-14.4c-4.1,0-7.5,3.4-7.5,7.5s3.4,7.5,7.5,7.5h160.5
		c4.1,0,7.5-3.4,7.5-7.5s-3.4-7.5-7.5-7.5h-14.4v-32h58.5c4.1,0,7.5-3.4,7.5-7.5s-3.4-7.5-7.5-7.5h-361c-2.4,0-4.4-2-4.4-4.4v-51.8
		h482V351c0,2.4-2,4.4-4.4,4.4h-82.3c-4.1,0-7.5,3.4-7.5,7.5s3.4,7.5,7.5,7.5h82.3c10.7,0,19.4-8.7,19.4-19.4V35.3
		C512,24.6,503.3,15.9,492.6,15.9L492.6,15.9z M306.8,402.3H205.2v-32h101.7v32H306.8z M210.9,282c0-24.9,20.2-45.1,45.1-45.1
		s45.1,20.2,45.1,45.1c0,0.7,0,1.4,0,2.1H211C210.9,283.4,210.9,282.7,210.9,282L210.9,282z M316.1,284.1c0-0.7,0-1.4,0-2.1
		c0-33.1-27-60.1-60.1-60.1s-60.1,27-60.1,60.1c0,0.7,0,1.4,0,2.1h-75.2v-12.3h19.1c3.7,0,6.9-2.7,7.4-6.4
		c2.6-17.5,9.6-34.2,20.1-48.5c2.2-3,1.9-7.1-0.7-9.8l-13.5-13.5l14.5-14.5l13.5,13.5c2.6,2.6,6.8,2.9,9.8,0.7
		c14.3-10.5,31.1-17.5,48.5-20.1c3.7-0.6,6.4-3.7,6.4-7.4v-19.1h20.5v19.1c0,3.7,2.7,6.9,6.4,7.4c17.5,2.6,34.2,9.6,48.5,20.1
		c3,2.2,7.1,1.9,9.8-0.7l13.5-13.5l14.5,14.5l-13.5,13.5c-2.6,2.6-2.9,6.8-0.7,9.8c10.5,14.3,17.5,31.1,20.1,48.5
		c0.6,3.7,3.7,6.4,7.4,6.4h19.1v12.3L316.1,284.1L316.1,284.1z"/>
	<path class="st1" d="M159.8,72.1c0-4.1-3.4-7.5-7.5-7.5H54.4c-4.1,0-7.5,3.4-7.5,7.5s3.4,7.5,7.5,7.5h97.9
		C156.5,79.6,159.8,76.2,159.8,72.1z"/>
	<path class="st1" d="M54.4,98.2c-4.1,0-7.5,3.4-7.5,7.5s3.4,7.5,7.5,7.5h31.8c4.1,0,7.5-3.4,7.5-7.5s-3.4-7.5-7.5-7.5H54.4z"/>
	<path class="st1" d="M435.5,113.2h31.8c4.1,0,7.5-3.4,7.5-7.5s-3.4-7.5-7.5-7.5h-31.8c-4.1,0-7.5,3.4-7.5,7.5
		S431.3,113.2,435.5,113.2z"/>
	<path class="st1" d="M435.5,146.8h31.8c4.1,0,7.5-3.4,7.5-7.5s-3.4-7.5-7.5-7.5h-31.8c-4.1,0-7.5,3.4-7.5,7.5
		S431.3,146.8,435.5,146.8z"/>
	<path class="st1" d="M435.5,180.4h31.8c4.1,0,7.5-3.4,7.5-7.5s-3.4-7.5-7.5-7.5h-31.8c-4.1,0-7.5,3.4-7.5,7.5
		S431.3,180.4,435.5,180.4z"/>
</g>
</svg>
